<?xml version="1.0" standalone="no"?>
<!DOCTYPE svg PUBLIC "-//W3C//DTD SVG 20010904//EN"
 "http://www.w3.org/TR/2001/REC-SVG-20010904/DTD/svg10.dtd">
<svg version="1.0" xmlns="http://www.w3.org/2000/svg"
 width="512.000000pt" height="512.000000pt" viewBox="0 0 512.000000 512.000000"
 preserveAspectRatio="xMidYMid meet">
<metadata>
Created by potrace 1.11, written by Peter Selinger 2001-2013
</metadata>
<g transform="translate(0.000000,512.000000) scale(0.100000,-0.100000)"
fill="#000000" stroke="none">
<path d="M1042 4570 c-93 -25 -146 -49 -219 -98 -120 -82 -213 -206 -261 -346
l-27 -81 -3 -569 -3 -569 93 5 c112 7 180 31 281 98 115 78 180 143 491 488
161 180 313 346 338 369 57 52 108 78 206 106 76 21 92 22 896 25 615 2 827 0
848 -9 28 -12 58 -54 58 -82 0 -26 -96 -161 -149 -210 -78 -73 -122 -89 -281
-99 -74 -5 -250 -6 -390 -3 -215 5 -264 4 -314 -10 -151 -40 -262 -134 -363
-307 -35 -58 -63 -111 -63 -116 0 -6 -4 -12 -8 -14 -11 -4 -232 -373 -232
-386 0 -6 -4 -12 -8 -14 -17 -6 -150 -243 -161 -285 -13 -49 -4 -75 32 -95 16
-9 116 -12 375 -13 l354 0 24 -28 c30 -35 30 -43 -2 -103 -69 -131 -182 -232
-318 -285 -162 -63 -150 -62 -964 -66 l-743 -4 3 -397 3 -397 28 -81 c67 -201
230 -363 431 -432 l81 -27 1485 0 1485 0 81 27 c201 69 363 231 431 432 l28
81 3 569 3 569 -93 -5 c-112 -7 -180 -31 -281 -98 -115 -78 -180 -143 -491
-488 -161 -180 -313 -346 -338 -369 -57 -52 -108 -78 -206 -106 -76 -21 -92
-22 -896 -25 -615 -2 -827 0 -848 9 -28 12 -58 54 -58 82 0 26 96 161 149 210
78 73 122 89 281 99 74 5 243 6 375 3 207 -6 249 -5 305 10 101 26 195 81 274
160 71 70 144 186 504 800 77 131 99 193 82 225 -23 42 -39 44 -408 45 l-354
0 -24 28 c-30 35 -30 43 2 103 69 131 182 232 318 285 162 63 150 62 964 66
l743 4 -3 397 -3 397 -28 81 c-67 201 -230 363 -431 432 l-81 27 -1465 2
c-1414 2 -1468 1 -1538 -17z"/>
</g>
</svg>
