<svg xmlns="http://www.w3.org/2000/svg" width="31.883" height="32.692" viewBox="0 0 31.883 32.692">
  <g id="Group_339" data-name="Group 339" transform="translate(-887.75 -701)">
    <path id="Path_17" data-name="Path 17" d="M16,40.466V45.66a.826.826,0,0,0,1.652,0V40.466a.826.826,0,0,0-1.652,0Z" transform="translate(876.459 674.295)" fill="#2da500"/>
    <path id="Path_18" data-name="Path 18" d="M80.652,45.66V40.466a.826.826,0,0,0-1.652,0V45.66a.826.826,0,0,0,1.652,0Z" transform="translate(834.276 674.295)" fill="#2da500"/>
    <path id="Path_19" data-name="Path 19" d="M38.486,82.51a.826.826,0,0,0,0,1.652h6.5a.826.826,0,0,0,0-1.652Z" transform="translate(861.956 645.591)" fill="#2da500"/>
    <path id="Path_20" data-name="Path 20" d="M37.66,19.666a.826.826,0,0,0,.826.826h6.5a.826.826,0,1,0,0-1.652h-6.5a.826.826,0,0,0-.826.826Z" transform="translate(861.956 688.222)" fill="#2da500"/>
    <path id="Path_21" data-name="Path 21" d="M45.8,47.319l-1.943,1.93-.631-.631a.827.827,0,0,0-1.17,1.17L43.275,51a.826.826,0,0,0,1.17,0l2.515-2.515a.827.827,0,0,0-1.17-1.17Z" transform="translate(859.173 669.316)" fill="#2da500"/>
    <path id="Path_22" data-name="Path 22" d="M43.187,40.248a6.638,6.638,0,1,0-6.638,6.638A6.638,6.638,0,0,0,43.187,40.248Zm-6.638,4.986a4.986,4.986,0,1,1,4.986-4.986,4.986,4.986,0,0,1-4.986,4.986Z" transform="translate(867.145 678.333)" fill="#2da500"/>
    <path id="Path_23" data-name="Path 23" d="M72.587,6.906a3.635,3.635,0,1,0-4.689,0,3.615,3.615,0,0,0-3.2,3.585v.876a.826.826,0,1,0,1.652,0v-.872a1.959,1.959,0,0,1,1.956-1.956,1.5,1.5,0,0,0,.833-2.756A1.983,1.983,0,0,1,70.3,2.171a2.012,2.012,0,0,1,1.913,1.983,1.983,1.983,0,0,1-.869,1.629,1.5,1.5,0,0,0,.829,2.759A1.959,1.959,0,0,1,74.131,10.5v.876a.826.826,0,1,0,1.652,0v-.879a3.615,3.615,0,0,0-3.2-3.588Z" transform="translate(843.851 700.506)" fill="#2da500"/>
    <path id="Path_24" data-name="Path 24" d="M72.577,70.436a3.635,3.635,0,1,0-4.689,0,3.615,3.615,0,0,0-3.2,3.585V74.9a.826.826,0,1,0,1.652,0v-.876A1.959,1.959,0,0,1,68.3,72.065a1.5,1.5,0,0,0,.836-2.762,1.983,1.983,0,0,1,1.16-3.6,2.012,2.012,0,0,1,1.913,1.983,1.983,1.983,0,0,1-.869,1.619,1.5,1.5,0,0,0,.829,2.759,1.959,1.959,0,0,1,1.956,1.956v.876a.826.826,0,0,0,1.652,0v-.872A3.615,3.615,0,0,0,72.577,70.436Z" transform="translate(843.857 657.968)" fill="#2da500"/>
    <path id="Path_25" data-name="Path 25" d="M1.75,74.9a.826.826,0,0,0,1.652,0v-.876a1.959,1.959,0,0,1,1.956-1.956A1.5,1.5,0,0,0,6.194,69.3a1.983,1.983,0,0,1,1.163-3.6,2.012,2.012,0,0,1,1.913,1.983A1.983,1.983,0,0,1,8.4,69.3a1.5,1.5,0,0,0,.829,2.759,1.959,1.959,0,0,1,1.956,1.956v.876a.826.826,0,0,0,1.652,0v-.872a3.615,3.615,0,0,0-3.2-3.585,3.635,3.635,0,1,0-4.689,0,3.615,3.615,0,0,0-3.2,3.585Z" transform="translate(886 657.968)" fill="#2da500"/>
    <path id="Path_26" data-name="Path 26" d="M1.75,11.37a.826.826,0,1,0,1.652,0v-.876A1.959,1.959,0,0,1,5.358,8.539a1.5,1.5,0,0,0,.833-2.756A1.983,1.983,0,0,1,7.357,2.171,2.012,2.012,0,0,1,9.271,4.154,1.983,1.983,0,0,1,8.4,5.783a1.5,1.5,0,0,0,.829,2.759A1.959,1.959,0,0,1,11.187,10.5v.876a.826.826,0,0,0,1.652,0v-.879a3.615,3.615,0,0,0-3.2-3.588,3.635,3.635,0,1,0-4.689,0,3.615,3.615,0,0,0-3.2,3.588Z" transform="translate(886 700.506)" fill="#2da500"/>
  </g>
</svg>
