<svg xmlns="http://www.w3.org/2000/svg" width="33.331" height="31.294" viewBox="0 0 33.331 31.294">
  <g id="Group_341" data-name="Group 341" transform="translate(-875 -945)">
    <rect id="Rectangle_376" data-name="Rectangle 376" width="33.331" height="2" transform="translate(875 959.962)" fill="#2da500"/>
    <path id="Path_13" data-name="Path 13" d="M24.1,7.6H12.4V19.3H24.1ZM22.14,17.34H14.4V9.6h7.74Z" transform="translate(865.341 937.4)" fill="#2da500"/>
    <rect id="Rectangle_377" data-name="Rectangle 377" width="2.37" height="2.37" transform="translate(882.296 949.666)" fill="#2da500"/>
    <path id="Path_14" data-name="Path 14" d="M22.14,71.74H14.4V63h-2V73.7H24.14V63h-2Z" transform="translate(865.341 902.517)" fill="#2da500"/>
    <rect id="Rectangle_378" data-name="Rectangle 378" width="2.37" height="2.37" transform="translate(882.296 969.184)" fill="#2da500"/>
    <path id="Path_15" data-name="Path 15" d="M68.3,7.6H56.6V19.3H68.3ZM66.34,17.34H58.6V9.6h7.74Z" transform="translate(837.51 937.4)" fill="#2da500"/>
    <rect id="Rectangle_379" data-name="Rectangle 379" width="2.37" height="2.37" transform="translate(898.628 949.666)" fill="#2da500"/>
    <rect id="Rectangle_380" data-name="Rectangle 380" width="4.703" height="2.37" transform="translate(898.776 973.924)" fill="#2da500"/>
    <rect id="Rectangle_381" data-name="Rectangle 381" width="2.37" height="2.37" transform="translate(891.703 973.924)" fill="#2da500"/>
    <rect id="Rectangle_382" data-name="Rectangle 382" width="2.37" height="2.37" transform="translate(903.48 971.554)" fill="#2da500"/>
    <rect id="Rectangle_383" data-name="Rectangle 383" width="2.37" height="1.481" transform="translate(901.147 967.739)" fill="#2da500"/>
    <path id="Path_16" data-name="Path 16" d="M58.833,73H56.5v2.333h4.629l.037-6.037H58.833Z" transform="translate(837.573 898.551)" fill="#2da500"/>
    <rect id="Rectangle_384" data-name="Rectangle 384" width="4.666" height="2.333" transform="translate(891.74 965.517)" fill="#2da500"/>
  </g>
</svg>
