<svg xmlns="http://www.w3.org/2000/svg" width="39.737" height="43.773" viewBox="0 0 39.737 43.773">
  <g id="Group_334" data-name="Group 334" transform="translate(-2.55 0.45)">
    <path id="Path_5" data-name="Path 5" d="M12.028,8.468A18.533,18.533,0,0,1,22.879,3.042a2.62,2.62,0,0,0,2.448,1.919,2.584,2.584,0,0,0,2.581-2.581A2.542,2.542,0,0,0,25.328-.2a2.516,2.516,0,0,0-2.514,2.25A19.5,19.5,0,0,0,11.3,7.74ZM25.328.793a1.61,1.61,0,0,1,1.588,1.588,1.588,1.588,0,1,1-3.176,0A1.567,1.567,0,0,1,25.328.793Z" transform="translate(-2.876)" fill="#2da500" stroke="#2da500" stroke-width="0.5"/>
    <path id="Path_6" data-name="Path 6" d="M3.66,31.867l.926-.265a17.506,17.506,0,0,1-.728-5.227,18.828,18.828,0,0,1,1.39-7.146,2.251,2.251,0,0,0,.662.066,2.581,2.581,0,0,0,2.25-1.257,2.445,2.445,0,0,0,.265-1.919,2.846,2.846,0,0,0-1.191-1.588A3.012,3.012,0,0,0,5.91,14.2a2.54,2.54,0,0,0-1.588,4.566A19.771,19.771,0,0,0,2.8,26.375,22.594,22.594,0,0,0,3.66,31.867ZM4.587,15.92a1.613,1.613,0,0,1,1.39-.794,1.762,1.762,0,0,1,.794.2,1.649,1.649,0,0,1,.728.993,1.487,1.487,0,0,1-.132,1.191,1.608,1.608,0,0,1-2.184.529A1.484,1.484,0,0,1,4.587,15.92Z" transform="translate(0 -4.872)" fill="#2da500" stroke="#2da500" stroke-width="0.5"/>
    <path id="Path_7" data-name="Path 7" d="M7.853,47.233a2.585,2.585,0,0,0,.4-3.11A2.643,2.643,0,0,0,6,42.8a2.737,2.737,0,0,0-1.257.331,2.3,2.3,0,0,0-1.191,1.522,2.606,2.606,0,0,0,3.507,3.11,19.456,19.456,0,0,0,10.256,7.014l.265-.926A18.692,18.692,0,0,1,7.853,47.233ZM4.677,46.175a1.517,1.517,0,0,1-.132-1.191,1.711,1.711,0,0,1,.728-.926,1.762,1.762,0,0,1,.794-.2,1.613,1.613,0,0,1,1.39.794,1.7,1.7,0,0,1-.6,2.184A1.72,1.72,0,0,1,4.677,46.175Z" transform="translate(-0.223 -14.548)" fill="#2da500" stroke="#2da500" stroke-width="0.5"/>
    <path id="Path_8" data-name="Path 8" d="M44.348,52.3a18.581,18.581,0,0,1-10.719,5.293,2.555,2.555,0,0,0-5.029.6,2.844,2.844,0,0,0,.728,1.853,2.623,2.623,0,0,0,1.787.794h0a2.516,2.516,0,0,0,2.514-2.25A19.44,19.44,0,0,0,45.01,52.962ZM31.181,59.909v0a1.6,1.6,0,0,1-1.125-.463,1.877,1.877,0,0,1-.463-1.125,1.588,1.588,0,1,1,1.588,1.588Z" transform="translate(-8.729 -17.762)" fill="#2da500" stroke="#2da500" stroke-width="0.5"/>
    <path id="Path_9" data-name="Path 9" d="M49.688,11.674a2.428,2.428,0,0,0-.662,1.125,2.549,2.549,0,0,0,2.448,3.308,2.737,2.737,0,0,0,1.257-.331,2.3,2.3,0,0,0,1.191-1.522,2.549,2.549,0,0,0-2.448-3.308,2.113,2.113,0,0,0-.926.2A19.564,19.564,0,0,0,39.565,3.8l-.265.993A18.072,18.072,0,0,1,49.688,11.674Zm3.176,1.059A1.517,1.517,0,0,1,53,13.924a1.711,1.711,0,0,1-.728.926,1.6,1.6,0,0,1-2.117-.6,1.517,1.517,0,0,1-.132-1.191,1.711,1.711,0,0,1,.728-.926,1.762,1.762,0,0,1,.794-.2A1.589,1.589,0,0,1,52.864,12.733Z" transform="translate(-12.349 -1.353)" fill="#2da500" stroke="#2da500" stroke-width="0.5"/>
    <path id="Path_10" data-name="Path 10" d="M57.521,37.7a19.3,19.3,0,0,0,1.588-7.742A17.946,17.946,0,0,0,58.447,25l-.993.265a18.662,18.662,0,0,1,.6,4.7,18.4,18.4,0,0,1-1.522,7.278,2.733,2.733,0,0,0-2.911,1.191,2.445,2.445,0,0,0-.265,1.919,2.641,2.641,0,0,0,1.191,1.588,2.325,2.325,0,0,0,1.323.331,2.474,2.474,0,0,0,2.184-1.257,2.445,2.445,0,0,0,.265-1.919A1.908,1.908,0,0,0,57.521,37.7Zm-.265,2.845A1.589,1.589,0,0,1,54.543,38.9a1.613,1.613,0,0,1,1.39-.794,1.762,1.762,0,0,1,.794.2,1.649,1.649,0,0,1,.728.993A1.417,1.417,0,0,1,57.256,40.549Z" transform="translate(-17.072 -8.526)" fill="#2da500" stroke="#2da500" stroke-width="0.5"/>
    <path id="Path_11" data-name="Path 11" d="M28.271,18.566a4.4,4.4,0,0,0-2.25.6A4.188,4.188,0,0,0,23.9,18.5,3.911,3.911,0,0,0,20,22.4a3.928,3.928,0,0,0,5.161,3.705,4.475,4.475,0,0,0,6.22,0,4.155,4.155,0,0,0,1.257.2,3.911,3.911,0,0,0,3.9-3.9,3.869,3.869,0,0,0-3.9-3.9,3.824,3.824,0,0,0-2.117.662A4.4,4.4,0,0,0,28.271,18.566ZM20.993,22.4A2.937,2.937,0,0,1,23.9,19.493a3.012,3.012,0,0,1,1.323.331,4.463,4.463,0,0,0-1.323,3.11,4.275,4.275,0,0,0,.662,2.25,2.04,2.04,0,0,1-.662.066A2.8,2.8,0,0,1,20.993,22.4Zm7.278,3.97a3.441,3.441,0,1,1,3.441-3.441A3.459,3.459,0,0,1,28.271,26.374Zm4.367-6.881a2.911,2.911,0,1,1,0,5.823,2.482,2.482,0,0,1-.662-.066A4.461,4.461,0,0,0,32.638,23a4.344,4.344,0,0,0-1.323-3.11A2.553,2.553,0,0,1,32.638,19.493Z" transform="translate(-5.819 -6.327)" fill="#2da500" stroke="#2da500" stroke-width="0.5"/>
    <path id="Path_12" data-name="Path 12" d="M38.676,38.072a28.642,28.642,0,0,0-.4-3.838v-.066a5.969,5.969,0,0,0-.529-1.654v-.066a3.421,3.421,0,0,0-1.191-1.191,3.929,3.929,0,0,0-.529-.265L33.184,30l-1.125,2.184-2.779-.993L26.5,36.352h-.926L22.8,31.191l-2.779.993L18.892,30l-2.779.993a1.33,1.33,0,0,0-.529.265,2.948,2.948,0,0,0-1.191,1.191l-.066.132a4.031,4.031,0,0,0-.529,1.654V34.3c-.132,1.059-.265,2.382-.4,3.838v.529h3.375c-.066.529-.066,1.125-.132,1.787v.529H35.566v-.529c-.066-.662-.066-1.257-.132-1.787h3.375Zm-24.283-.463c.066-1.257.2-2.316.331-3.242v-.132a4.542,4.542,0,0,1,.463-1.323,2.662,2.662,0,0,1,.86-.86l.4-.2,1.985-.728.728,1.39A3.678,3.678,0,0,0,17.7,33.9a4.632,4.632,0,0,0-.662,2.184c0,.132-.132.662-.2,1.456H14.393Zm3.242,2.316a24.707,24.707,0,0,1,.4-3.573V36.22a3.679,3.679,0,0,1,.529-1.72,2.863,2.863,0,0,1,1.456-1.191l2.316-.86,2.647,4.963h2.051l2.647-4.963,2.316.794a3.226,3.226,0,0,1,.463.2,2.85,2.85,0,0,1,.993.993V34.5a4.89,4.89,0,0,1,.529,1.456v.132c.132,1.059.265,2.382.4,3.838Zm17.6-2.316c-.066-.6-.132-1.125-.2-1.654v-.066a4.192,4.192,0,0,0-.662-1.853V33.97a3.821,3.821,0,0,0-1.39-1.323h0l.728-1.39,1.919.728.4.2a3.238,3.238,0,0,1,.86.794v.066a3.673,3.673,0,0,1,.463,1.257v.132c.132.926.265,1.985.331,3.242H35.235Z" transform="translate(-3.586 -10.217)" fill="#2da500" stroke="#2da500" stroke-width="0.5"/>
  </g>
</svg>
