<svg xmlns="http://www.w3.org/2000/svg" width="40.586" height="30.408" viewBox="0 0 40.586 30.408">
  <g id="Group_333" data-name="Group 333" transform="translate(-23.904 -810)">
    <g id="Group_293" data-name="Group 293" transform="translate(23.904 810)">
      <path id="Path_32" data-name="Path 32" d="M21.526,17a.922.922,0,0,0,.086,1.843H25.3v1.872a18.4,18.4,0,0,0-17.507,18.4V42.8a.921.921,0,0,0,.921.921h1.828a.921.921,0,1,0,0-1.843H9.634V39.112a16.585,16.585,0,0,1,33.17,0v2.764H14.27a.921.921,0,1,0,0,1.843H43.725a.921.921,0,0,0,.921-.921V39.112a18.4,18.4,0,0,0-17.507-18.4V18.842h3.686a.921.921,0,1,0,0-1.843H21.612q-.043,0-.086,0ZM6.783,45.562A.922.922,0,0,0,6.87,47.4h38.7a.921.921,0,1,0,0-1.843H6.87Q6.826,45.56,6.783,45.562Z" transform="translate(-5.904 -16.998)" fill="#2da500"/>
    </g>
  </g>
</svg>
