<svg xmlns="http://www.w3.org/2000/svg" width="159.525" height="34.429" viewBox="0 0 159.525 34.429"><g transform="translate(-51.475 -54)"><g transform="translate(106.348 58)"><path d="M0,23.844l2.394-5.387a16.25,16.25,0,0,0,8.48,2.494c2.993,0,4.19-.8,4.19-2.1C15.064,14.765.5,17.758.5,8.181.4,3.691,4.19,0,11.772,0A19.9,19.9,0,0,1,21.05,2.195L18.855,7.582a15.62,15.62,0,0,0-7.083-2c-3.093,0-4.19,1-4.19,2.295,0,3.891,14.566,1,14.566,10.475,0,4.489-3.691,8.28-11.373,8.28C6.584,26.737,2.394,25.54,0,23.844Z" fill="#2da500"/><path d="M32.481,6.286H24.6V.5H47.546V6.286H39.664V26.239H32.382V6.286Z" transform="translate(-0.058 -0.001)" fill="#2da500"/><path d="M68.152,21.151H57.278l-2,4.988H47.9L59.173.5h7.183L77.729,26.139H70.147Zm-2.1-5.287L62.765,7.683l-3.292,8.181Z" transform="translate(-0.113 -0.001)" fill="#2da500"/><path d="M96.455,26.139l-5.287-7.981L85.88,26.139H77.6L86.978,13.17,78,.5H86.18l5.088,7.383L96.356.5h7.881L95.258,12.871l9.577,13.269Z" transform="translate(-0.183 -0.001)" fill="#2da500"/></g><path d="M9.253,7.015S3.916,13.04,2.84,14.245A3.714,3.714,0,0,1,0,15.493V6.886a6.854,6.854,0,0,1,1.764-4.6A6.965,6.965,0,0,1,6.886,0H27.543a7.053,7.053,0,0,1,4.734,1.851,6.882,6.882,0,0,1,2.152,5.035c0,1.937.043,2.5,0,3.443a1.7,1.7,0,0,1-1.721,1.721c-.99,0-11.017.043-12.222,0A3.47,3.47,0,0,0,18.118,13a3.752,3.752,0,0,0-.689.861c-.086.172-.086.172-.129.215a.935.935,0,0,0,.129,1.076.9.9,0,0,0,.775.3h4.949a1.8,1.8,0,0,1,1.248.473c.344.3.646,1.076.473,1.377s-3.4,5.767-3.787,6.412a4.687,4.687,0,0,1-1.678,1.549,4.2,4.2,0,0,1-2.023.473H12.351a3.22,3.22,0,0,0-1.937.646,3.606,3.606,0,0,0-.9.9c-.215.344-.258.473-.387.689a.865.865,0,0,0,.086.9c.215.215.344.387.689.387H21.088a5.593,5.593,0,0,0,4.131-1.894c1.291-1.463,5.509-6.2,6.369-7.187a3.862,3.862,0,0,1,2.84-1.248v8.607a6.833,6.833,0,0,1-6.886,6.886H6.886A6.91,6.91,0,0,1,2.5,32.879,6.806,6.806,0,0,1,0,27.543V23.971a1.7,1.7,0,0,1,1.721-1.592h13a3.623,3.623,0,0,0,2.109-.689,2.767,2.767,0,0,0,.9-1.033,2.481,2.481,0,0,0,.215-.387.989.989,0,0,0-.086-.9.912.912,0,0,0-.775-.43H12.653a1.651,1.651,0,0,1-.99-.344,2.007,2.007,0,0,1-.6-.861c-.129-.43-.086-.6-.043-.646s3.443-5.81,3.787-6.412A4.518,4.518,0,0,1,16.138,9.3a4.077,4.077,0,0,1,2.281-.689h4.433a3.367,3.367,0,0,0,2.066-.732,4.259,4.259,0,0,0,.861-.99c.172-.3.215-.344.258-.43a.948.948,0,0,0-.043-.9.717.717,0,0,0-.732-.387H13.341A5.562,5.562,0,0,0,9.253,7.015Z" transform="translate(51.475 54)" fill="#2da500"/></g></svg>